<svg aria-hidden="true" style="width:0;height:0;position:absolute;overflow:hidden" xmlns="http://www.w3.org/2000/svg"><defs><symbol id="icon-close" viewBox="0 0 32 32"><path d="m18.229 16 13.1-13.1A1.58 1.58 0 0 0 29.098.673L29.1.672 16 13.772 2.901.656A1.588 1.588 0 1 0 .654 2.897l.001.001L13.771 16 .656 29.1a1.582 1.582 0 1 0 2.227 2.23l.002-.002 13.113-13.1L29.1 31.33a1.58 1.58 0 0 0 2.226-2.231l.002.002-13.102-13.1z"/></symbol><symbol id="icon-down" viewBox="0 0 52 32"><path d="m27.761 28.887 23.171-24.32c.372-.391.601-.921.601-1.504s-.229-1.113-.602-1.505l.001.001-.029-.029c-.366-.385-.883-.624-1.455-.624s-1.088.239-1.454.623l-.001.001-21.818 22.906L4.366 1.533C4 1.148 3.483.909 2.911.909s-1.088.239-1.454.623l-.001.001-.032.026c-.373.391-.603.921-.603 1.505s.23 1.115.603 1.506l-.001-.001 23.174 24.32a2.178 2.178 0 0 0 3.159.001l.001-.001z"/></symbol><symbol id="icon-github" viewBox="0 0 32 32"><path d="M16 .396c-8.84 0-16 7.164-16 16 0 7.071 4.584 13.067 10.94 15.18.8.151 1.093-.344 1.093-.769 0-.38-.013-1.387-.02-2.72-4.451.965-5.389-2.147-5.389-2.147-.728-1.847-1.78-2.34-1.78-2.34-1.449-.992.112-.972.112-.972 1.607.112 2.451 1.648 2.451 1.648 1.427 2.447 3.745 1.74 4.66 1.331.144-1.035.556-1.74 1.013-2.14-3.553-.4-7.288-1.776-7.288-7.907 0-1.747.62-3.173 1.647-4.293-.18-.404-.72-2.031.14-4.235 0 0 1.34-.429 4.4 1.64 1.28-.356 2.64-.532 4-.54 1.36.008 2.72.184 4 .54 3.04-2.069 4.38-1.64 4.38-1.64.86 2.204.32 3.831.16 4.235 1.02 1.12 1.64 2.547 1.64 4.293 0 6.147-3.74 7.5-7.3 7.893.56.48 1.08 1.461 1.08 2.96 0 2.141-.02 3.861-.02 4.381 0 .42.28.92 1.1.76C27.42 29.455 32 23.455 32 16.395c0-8.836-7.164-16-16-16z"/></symbol><symbol id="icon-heart-orng" viewBox="0 0 35 32"><path style="fill:var(--color2,#fd5103)" d="m17.684 32-2.565-2.302C6.012 21.555 0 16.186 0 9.592 0 4.219 4.28 0 9.726 0c3.077 0 6.029 1.413 7.958 3.645A10.636 10.636 0 0 1 25.638 0h.003c5.447 0 9.726 4.221 9.726 9.592 0 6.592-6.013 11.963-15.119 20.125l-2.565 2.284z"/></symbol><symbol id="icon-heart-white" viewBox="0 0 35 32"><path stroke="#fd5103" style="stroke:var(--color2,#fd5103)" stroke-width="3.368" d="m16.246 28.446-.003-.003c-4.588-4.103-8.258-7.39-10.801-10.456-2.528-3.043-3.757-5.661-3.757-8.396 0-4.421 3.503-7.907 8.042-7.907 2.577 0 5.068 1.191 6.683 3.062l1.275 1.475 1.275-1.475a8.952 8.952 0 0 1 6.679-3.062h.004c4.539 0 8.042 3.488 8.042 7.907 0 2.735-1.233 5.352-3.756 8.399-2.545 3.069-6.215 6.358-10.803 10.469l-1.438 1.28-1.442-1.295z"/></symbol><symbol id="icon-menu" viewBox="0 0 56 32"><path d="M1.882.941h52.706a1.882 1.882 0 1 1 0 3.764H1.882a1.882 1.882 0 1 1 0-3.764zm0 13.177h52.706a1.882 1.882 0 1 1 0 3.764H1.882a1.882 1.882 0 1 1 0-3.764zm0 13.176h52.706a1.882 1.882 0 1 1 0 3.764H1.882a1.882 1.882 0 1 1 0-3.764z"/></symbol><symbol id="icon-search" viewBox="0 0 30 32"><path fill="#fd5103" style="fill:var(--color2,#fd5103)" d="M12.8 26.4a12.67 12.67 0 0 0 7.862-2.721l-.027.021 7.034 7.034 2.262-2.262-7.034-7.034a12.638 12.638 0 0 0 2.702-7.837c0-7.058-5.742-12.8-12.8-12.8s-12.8 5.742-12.8 12.8 5.742 12.8 12.8 12.8zm0-22.4c5.294 0 9.6 4.306 9.6 9.6s-4.306 9.6-9.6 9.6-9.6-4.306-9.6-9.6S7.506 4 12.8 4z"/></symbol><symbol id="icon-heart" viewBox="0 0 35 32"><path fill="#fd5103" style="fill:var(--color1,#fd5103)" d="m17.684 32-2.564-2.302C6.013 21.554 0 16.183 0 9.591 0 4.22 4.28 0 9.726 0c3.077 0 6.03 1.413 7.958 3.645C19.612 1.413 22.565 0 25.642 0c5.447 0 9.726 4.22 9.726 9.591 0 6.592-6.013 11.963-15.12 20.124l-2.564 2.284z"/><path d="m17.684 28.632-2.076-1.817c-7.373-6.429-12.24-10.67-12.24-15.874 0-4.24 3.464-7.572 7.874-7.572 2.491 0 4.882 1.115 6.442 2.877 1.56-1.762 3.951-2.877 6.442-2.877 4.409 0 7.874 3.332 7.874 7.572 0 5.204-4.867 9.444-12.24 15.888l-2.076 1.803z"/></symbol></defs></svg>